<svg width="61" height="20" viewBox="0 0 61 20" fill="none" xmlns="http://www.w3.org/2000/svg">
<g clip-path="url(#clip0_3060_163)">
<path d="M42.6939 1.46791C42.6939 1.46791 41.5514 1.9227 40.2228 3.38713C38.8941 4.85156 38.1202 6.4983 38.6929 6.93624C38.9129 7.10269 39.4202 7.1344 40.3407 6.30211C41.1901 5.56457 41.8569 4.64001 42.2886 3.60114C42.8831 2.15158 42.6939 1.48575 42.6939 1.4699M49.9655 4.1025C48.4892 3.34551 47.4102 2.41811 46.2876 1.84443C45.2165 1.29452 44.5239 1.06465 43.6579 1.18058C43.5371 1.20211 43.418 1.23191 43.3012 1.26975C43.3012 1.26975 43.7471 2.79264 41.9725 5.35093C40.1752 7.94489 38.5443 7.92705 38.0806 7.21466C37.5951 6.46263 38.2223 4.92983 39.2696 3.56548C40.3664 2.1387 42.2926 0.955662 42.2926 0.955662C42.2926 0.955662 41.6783 0.580142 40.1702 1.43522C38.6989 2.26552 36.1664 4.24716 33.8161 7.58919C31.4659 10.9312 31.0002 12.7702 30.6634 14.2178C30.3265 15.6653 30.6326 17.216 32.2378 17.216C33.8429 17.216 35.7116 14.7677 36.2387 13.9165C37.2186 12.3312 37.8577 9.89977 36.524 10.2337C35.8671 10.3982 35.3351 11.1254 34.9992 11.8259C34.7871 12.2758 34.625 12.7477 34.5157 13.2329C34.0496 13.425 33.612 13.6796 33.2147 13.9899C32.7728 14.3172 32.3598 14.6818 31.9802 15.0798C31.9802 15.0798 31.9861 13.9225 32.9085 12.0498C33.831 10.1772 35.5243 9.32213 36.4834 9.24187C37.3474 9.17251 38.472 9.90572 37.5188 12.6106C36.5657 15.3156 33.7537 18.6041 30.8001 18.6447C28.0743 18.6824 26.2909 15.2036 30.0847 9.13288C34.2838 2.42603 39.2092 0.368107 40.8083 0.139228C42.4075 -0.0896509 42.9277 0.615811 42.9277 0.615811C43.8903 0.220877 44.93 0.0494574 45.9685 0.114458C47.9214 0.246236 49.4314 1.62843 51.4249 2.59943C50.9068 3.09484 50.4123 3.61502 49.9665 4.1025M58.7392 1.84443C57.3857 2.71238 55.5131 3.49909 53.7137 3.33065C53.258 3.80129 52.7705 4.34624 52.282 4.94073C55.4021 5.55801 58.1358 3.62492 59.5893 1.97918C60.1192 1.38747 60.5744 0.732924 60.9447 0.030238C60.283 0.719497 59.5424 1.32842 58.7382 1.84443M54.5837 10.635C54.6073 10.5938 54.6266 10.5503 54.6411 10.5052C54.6319 10.4337 54.5984 10.3676 54.5463 10.3178C54.4942 10.2681 54.4266 10.2377 54.3548 10.2317C54.0576 10.2178 53.6523 10.2743 52.5892 11.4514C51.7072 12.4234 50.9481 13.5003 50.3291 14.6577C49.7207 15.7694 49.474 16.5977 49.8238 16.8117C49.9374 16.8706 50.0692 16.884 50.1924 16.8494C50.4292 16.7929 50.6977 16.5709 51.1059 16.0983C51.2971 15.8764 51.5092 15.5623 51.7628 15.2145C52.4663 14.2574 54.2339 11.2443 54.5837 10.635ZM43.54 11.9151C43.7174 11.4514 43.9433 10.5408 43.4736 10.1831C42.9693 9.80366 41.6832 10.6944 41.6763 11.6079C41.6674 12.5433 42.5819 12.9664 42.8009 13.0258C42.9257 13.0595 42.9693 13.0545 43.0297 12.9545C43.2237 12.6202 43.3942 12.273 43.54 11.9151ZM42.567 13.6163C42.2483 13.4692 41.951 13.2795 41.6832 13.0526C41.4147 12.8273 41.1903 12.5542 41.0214 12.247C41.0035 12.2173 40.9857 12.2401 40.9659 12.2668C40.9461 12.2936 40.8668 12.3659 40.1811 13.3706C39.4955 14.3753 38.4423 16.457 39.3954 16.8117C40.0058 17.0386 41.0214 15.9695 41.5752 15.2611C41.9526 14.7666 42.2946 14.2461 42.5987 13.7035C42.6275 13.6431 42.5987 13.6292 42.568 13.6163M53.3798 16.021C53.1212 16.4352 52.826 17.2298 53.6771 16.7354C54.7184 16.134 56.2017 13.8839 56.2017 13.8839H56.8744C56.2623 14.8251 55.5807 15.7193 54.8353 16.5591C53.7801 17.7282 52.4931 18.7904 51.5865 18.6854C50.5273 18.5615 50.8592 17.1714 50.8592 17.1714C50.8592 17.1714 49.3442 18.7844 48.2959 18.6685C46.8801 18.512 47.3121 16.7622 47.3121 16.7622C47.3121 16.7622 45.7109 18.727 44.62 18.6665C42.9099 18.5674 43.3399 16.4867 43.8155 15.0213C44.0701 14.2376 44.3059 13.6223 44.3059 13.6223C44.3059 13.6223 44.1365 13.6669 43.7719 13.7214C43.5816 13.7481 43.2348 13.7679 43.2348 13.7679C43.2348 13.7679 42.5224 15.0243 41.9527 15.7793C41.383 16.5343 38.9615 19.1372 37.5367 18.616C36.2189 18.1345 36.6548 16.1172 37.4217 14.514C38.5413 12.1767 41.6902 8.81879 43.5063 9.26268C45.3889 9.71944 43.5489 13.1546 43.5489 13.1546C43.5489 13.1546 43.5489 13.1675 43.5688 13.1764C43.6064 13.1903 43.7045 13.2012 43.9314 13.1566C44.1665 13.1086 44.397 13.04 44.62 12.9515C44.62 12.9515 46.5125 8.98822 48.6031 6.39525C50.6937 3.80228 54.8641 -0.663334 56.5009 0.416657C56.8972 0.682196 56.7189 1.59672 56.1799 2.70644C55.9371 2.78529 55.6904 2.85144 55.4407 2.9046C55.8014 2.24967 56.0402 1.69778 56.1115 1.31236C56.3582 -0.0272295 53.2302 2.79858 50.9949 5.83445C49.6485 7.66464 48.4523 9.60073 47.4181 11.6238C47.8219 11.3775 48.2073 11.1023 48.5714 10.8004C49.5684 9.9737 50.516 9.08902 51.4091 8.15098C52.2691 7.27053 53.0757 6.33948 53.8247 5.36282C54.0627 5.35131 54.2998 5.32683 54.5351 5.2895C53.7185 6.39785 52.8281 7.44984 51.8698 8.43832C50.9781 9.33996 50.013 10.31 49.1748 11.0144C48.4261 11.6511 47.6363 12.238 46.8107 12.7712C46.8107 12.7712 44.8558 16.7136 45.919 16.9663C46.5442 17.1169 47.7787 15.2155 47.7787 15.2155C47.7787 15.2155 49.3898 12.7573 50.3608 11.6486C51.6855 10.1425 52.826 9.2706 53.9654 9.25475C54.6293 9.24286 55.0206 9.94832 55.0206 9.94832L55.3327 9.4648H57.2549C57.2549 9.4648 53.6652 15.5564 53.3779 16.0151M58.7382 1.84443C57.3847 2.71238 55.5121 3.49909 53.7127 3.33065C53.257 3.80129 52.7695 4.34624 52.281 4.94073C55.4011 5.55801 58.1348 3.62492 59.5883 1.97918C60.1185 1.38752 60.5741 0.732977 60.9447 0.030238C60.283 0.719497 59.5424 1.32842 58.7382 1.84443ZM31.7433 4.83273H29.9153L28.8819 6.50226H30.7099L31.7433 4.83273ZM23.0876 10.6142C23.8654 9.54803 26.0115 5.81166 26.0115 5.81166C26.0024 5.74029 25.9691 5.67419 25.9172 5.62442C25.8653 5.57464 25.7978 5.5442 25.7261 5.53819C25.4289 5.52432 24.9335 5.62439 23.9496 6.85598C22.9657 8.08757 22.2018 9.06749 21.6449 10.087C21.0346 11.1997 20.7681 11.9845 21.1188 12.1975C21.2326 12.2545 21.3634 12.2679 21.4864 12.2351C21.7143 12.1777 22.0125 11.9488 22.4217 11.4781C22.614 11.2582 22.8319 10.9619 23.0876 10.6142ZM13.2785 5.56098C12.7732 5.17952 11.4881 6.07224 11.4811 6.9838C11.4732 7.92012 12.6374 8.20646 12.788 8.2134C12.8323 8.21708 12.8767 8.20779 12.9158 8.18665C12.9427 8.17098 12.9641 8.14747 12.9773 8.11927C13.1141 7.85029 13.2372 7.57449 13.3458 7.29293C13.5232 6.82923 13.7481 5.91867 13.2785 5.56098ZM12.5165 8.78411C12.1681 8.67526 11.8351 8.52208 11.5257 8.32834C11.2259 8.13288 10.9821 7.86279 10.8183 7.5446C10.8004 7.51487 10.7806 7.53766 10.7628 7.56441C10.745 7.59117 10.6419 7.71997 9.95428 8.72863C9.26665 9.73728 8.24809 11.8002 9.20225 12.1549C9.81061 12.3857 10.8381 11.3077 11.3959 10.6023C11.8134 10.0479 12.1991 9.47029 12.5512 8.87229C12.574 8.81185 12.5512 8.79798 12.5175 8.78708M27.4472 9.40535H28.117C28.117 9.40535 24.7611 14.2604 22.8656 14.0345C21.8074 13.9106 22.1215 12.6047 22.1215 12.6047C22.1215 12.6047 20.6353 14.3446 19.2699 13.9919C18.0314 13.6738 18.831 11.6139 18.831 11.6139C18.6903 11.6704 16.0102 14.6914 14.1266 13.9671C12.1559 13.2061 13.1794 10.6766 13.5539 9.91563C13.872 9.27457 14.2237 8.65035 14.2237 8.65035C14.2237 8.65035 13.9215 8.73556 13.7283 8.77916C13.5351 8.82275 13.2557 8.87824 13.2557 8.87824C13.2557 8.87824 12.3233 10.3932 11.7536 11.1492C11.1839 11.9052 8.76232 14.5031 7.33555 13.9859C5.90877 13.4687 6.26249 11.4722 7.06406 9.88689C8.36402 7.31572 11.4484 4.156 13.3062 4.63556C15.1828 5.11412 13.6292 8.15791 13.6292 8.15791C13.6292 8.15791 14.0028 8.20647 14.8975 7.59612C16.1855 6.71727 17.8858 4.35318 19.7267 4.6306C20.5947 4.76139 21.4032 5.64817 20.2974 7.33256C19.9447 7.87355 19.3532 8.35707 18.9004 7.8785C18.618 7.58126 18.8647 7.03928 19.161 6.66872C19.2763 6.51766 19.4269 6.39726 19.5997 6.31813C19.7725 6.239 19.9621 6.20356 20.1518 6.21492C20.1518 6.21492 20.456 5.52135 19.6821 5.53126C19.0559 5.54315 17.4706 7.00262 16.5759 8.47696C15.7555 9.83042 14.512 12.136 15.7605 12.6384C16.9049 13.1001 19.0827 10.5151 20.0913 9.16062C21.1 7.80617 23.3987 4.73662 25.3268 4.61376C25.9907 4.57016 26.386 5.17555 26.386 5.17555L26.6089 4.82282H28.5371C28.5371 4.82282 24.9057 10.8827 24.6223 11.3414C24.3994 11.7001 24.1032 12.5066 24.9196 12.0548C25.736 11.603 27.4472 9.40535 27.4472 9.40535ZM26.3979 19.1154C24.9782 18.1326 23.2782 17.6365 21.5528 17.7015C21.0858 17.7142 20.6283 17.8368 20.2176 18.0594C19.8069 18.282 19.4544 18.5983 19.1887 18.9826C18.4535 17.6995 17 16.9118 14.7528 16.9296C11.1215 16.9712 7.51984 18.6457 4.66629 18.6437C1.93163 18.6437 -0.0628872 16.9247 0.00151598 13.872C0.121405 8.51461 4.64845 3.69032 8.02714 1.51944C9.97509 0.271997 11.604 -0.0985683 12.6691 0.0213207C13.4459 0.107522 14.3803 1.0052 13.7907 2.32794C12.9247 4.26103 11.7288 4.1025 11.7734 3.17807C11.7982 2.57664 12.1985 2.19815 12.4997 1.98908C12.6909 1.85731 13.0288 1.81965 13.2052 1.81569C13.3766 1.67103 13.5024 0.612839 12.1153 0.960616C10.7281 1.30839 9.04372 2.67572 7.44454 4.44235C5.84536 6.20898 3.35543 9.54803 2.74014 13.0545C2.4528 14.6805 2.64105 17.646 6.49632 17.6123C9.76602 17.5855 14.5854 15.4325 19.0143 15.4771C20.7334 15.4939 22.2295 15.9576 23.3957 16.677C24.5411 17.3824 25.9144 18.4129 26.4018 19.1164" fill="#E61D2B"/>
</g>
<defs>
<clipPath id="clip0_3060_163">
<rect width="60.9432" height="19.1168" fill="white"/>
</clipPath>
</defs>
</svg>
