<svg width="70" height="24" viewBox="0 0 70 24" fill="none" xmlns="http://www.w3.org/2000/svg">
<path d="M29.4153 11.9906C29.4153 15.2362 26.8763 17.6277 23.7604 17.6277C20.6445 17.6277 18.1055 15.2362 18.1055 11.9906C18.1055 8.72222 20.6445 6.35352 23.7604 6.35352C26.8763 6.35352 29.4153 8.72222 29.4153 11.9906ZM26.9398 11.9906C26.9398 9.96249 25.4683 8.57481 23.7604 8.57481C22.0525 8.57481 20.5809 9.96249 20.5809 11.9906C20.5809 13.9984 22.0525 15.4064 23.7604 15.4064C25.4683 15.4064 26.9398 13.9959 26.9398 11.9906Z" fill="#EA4335"/>
<path d="M41.6145 11.9906C41.6145 15.2362 39.0755 17.6277 35.9596 17.6277C32.8437 17.6277 30.3047 15.2362 30.3047 11.9906C30.3047 8.72476 32.8437 6.35352 35.9596 6.35352C39.0755 6.35352 41.6145 8.72222 41.6145 11.9906ZM39.139 11.9906C39.139 9.96249 37.6675 8.57481 35.9596 8.57481C34.2517 8.57481 32.7801 9.96249 32.7801 11.9906C32.7801 13.9984 34.2517 15.4064 35.9596 15.4064C37.6675 15.4064 39.139 13.9959 39.139 11.9906Z" fill="#FBBC05"/>
<path d="M53.3105 6.69408V16.8145C53.3105 20.9775 50.8554 22.6778 47.9529 22.6778C45.2208 22.6778 43.5764 20.8504 42.9563 19.356L45.1115 18.4588C45.4953 19.3763 46.4357 20.459 47.9504 20.459C49.8083 20.459 50.9596 19.3128 50.9596 17.155V16.3443H50.8732C50.3191 17.0279 49.2517 17.6252 47.9047 17.6252C45.0861 17.6252 42.5039 15.1701 42.5039 12.011C42.5039 8.82896 45.0861 6.35352 47.9047 6.35352C49.2491 6.35352 50.3166 6.95077 50.8732 7.61411H50.9596V6.69662H53.3105V6.69408ZM51.1349 12.011C51.1349 10.026 49.8108 8.57481 48.1258 8.57481C46.4179 8.57481 44.987 10.026 44.987 12.011C44.987 13.9756 46.4179 15.4064 48.1258 15.4064C49.8108 15.4064 51.1349 13.9756 51.1349 12.011Z" fill="#4285F4"/>
<path d="M57.184 0.761719V17.2817H54.7695V0.761719H57.184Z" fill="#34A853"/>
<path d="M66.5919 13.8465L68.5133 15.1275C67.8932 16.045 66.3988 17.6258 63.8166 17.6258C60.6142 17.6258 58.2227 15.1503 58.2227 11.9887C58.2227 8.6364 60.6346 6.35156 63.5395 6.35156C66.4648 6.35156 67.8957 8.6796 68.3634 9.93766L68.6201 10.5781L61.0844 13.6991C61.6613 14.8301 62.5585 15.407 63.8166 15.407C65.0772 15.407 65.9514 14.7869 66.5919 13.8465ZM60.6778 11.8184L65.7151 9.72671C65.4381 9.02271 64.6044 8.53219 63.6234 8.53219C62.3653 8.53219 60.6142 9.64284 60.6778 11.8184Z" fill="#EA4335"/>
<path d="M8.97131 10.5242V8.13258H17.0305C17.1093 8.5494 17.15 9.04245 17.15 9.57617C17.15 11.3705 16.6594 13.5892 15.0786 15.1701C13.541 16.7712 11.5764 17.6252 8.97385 17.6252C4.15003 17.6252 0.09375 13.696 0.09375 8.87217C0.09375 4.04835 4.15003 0.119141 8.97385 0.119141C11.6425 0.119141 13.5435 1.16625 14.9719 2.53105L13.2843 4.21863C12.2601 3.25793 10.8724 2.51072 8.97131 2.51072C5.44875 2.51072 2.69373 5.34961 2.69373 8.87217C2.69373 12.3947 5.44875 15.2336 8.97131 15.2336C11.2561 15.2336 12.5574 14.3161 13.391 13.4825C14.0671 12.8065 14.5118 11.8407 14.6872 10.5216L8.97131 10.5242Z" fill="#4285F4"/>
</svg>
