<svg width="92" height="17" viewBox="0 0 92 17" fill="none" xmlns="http://www.w3.org/2000/svg">
<g clip-path="url(#clip0_3060_165)">
<path d="M50.0039 15.513H61.8655V14.0641H52.0374V9.42797H59.4195V7.96198H52.0374V3.69065H61.8655V2.24707H50.0039V15.513Z" fill="black"/>
<path d="M56.1723 0.103516L54.5664 1.90764L59.6078 0.103516H56.1723Z" fill="black"/>
<path d="M81.7798 14.0641V2.24707H79.9258V15.513H91.9169V14.0641H81.7798Z" fill="black"/>
<path d="M69.55 2.24707L62.8047 15.513H65.0847L66.8104 12.0794H74.9004L76.6407 15.513H78.8972L72.1465 2.24707H69.55ZM67.6642 10.4166L70.8427 4.08015L74.0585 10.4166H67.6642Z" fill="black"/>
<path d="M43.5722 9.96581C46.6113 9.15486 46.9066 6.89355 46.8912 6.08513C46.7098 3.71524 45.1131 2.24707 42.2439 2.24707H33.8828V15.513H35.7889V9.94811H41.2322L45.2367 15.513H47.6391C47.6391 15.513 44.7572 11.7678 43.5722 9.96581ZM41.9837 8.38067H35.7889V3.81727H42.1996C43.6756 3.81727 44.5058 4.50631 44.8049 5.3816C45.0028 5.9816 44.8759 6.76923 44.5486 7.30546C44.0128 8.19201 42.995 8.38067 41.9837 8.38067Z" fill="black"/>
<path d="M22.4226 0C17.0422 0 13.375 3.79359 13.375 8.38515C13.375 13.2189 17.426 16.6313 22.4226 16.6313C27.416 16.6313 31.4654 13.2676 31.4654 8.38515C31.4654 3.79359 27.7528 0 22.4226 0ZM22.3581 14.9845C18.6356 14.9845 15.5685 11.9932 15.5685 8.38963C15.5685 4.79102 18.4908 1.65637 22.5024 1.65637C26.4146 1.65637 29.2903 4.79102 29.2903 8.38963C29.2903 11.9931 26.0789 14.9845 22.3581 14.9845Z" fill="black"/>
<path d="M8.58203 6.94008H9.95736L12.4538 2.24707H10.4449L8.58203 6.94008Z" fill="black"/>
<path d="M1.85503 14.0641V2.24707H0V15.513H11.9906V14.0641H1.85503Z" fill="black"/>
</g>
<defs>
<clipPath id="clip0_3060_165">
<rect width="91.9184" height="16.6313" fill="white"/>
</clipPath>
</defs>
</svg>
