<svg width="23" height="23" viewBox="0 0 23 23" fill="none" xmlns="http://www.w3.org/2000/svg">
<path fill-rule="evenodd" clip-rule="evenodd" d="M11.5 0C5.1531 0 0 5.1531 0 11.5C0 17.8473 5.1531 23 11.5 23C17.8473 23 23 17.8473 23 11.5C23 5.1531 17.8473 0 11.5 0ZM18.6892 4.6C16.8754 2.71069 14.324 1.53346 11.5 1.53346C8.67597 1.53346 6.12462 2.71069 4.31075 4.6H11.5C11.9232 4.6 12.2669 4.94371 12.2669 5.36691C12.2669 5.78974 11.9232 6.13346 11.5 6.13346H3.10224C2.79202 6.61774 2.52227 7.13037 2.29853 7.66691H4.6C5.0232 7.66691 5.36691 8.01026 5.36691 8.43346C5.36691 8.85666 5.0232 9.2 4.6 9.2H1.80062C1.68286 9.6979 1.60264 10.2098 1.56253 10.7335H11.5C11.9232 10.7335 12.2669 11.0772 12.2669 11.5C12.2669 11.9232 11.9232 12.2669 11.5 12.2669H1.56253C1.60264 12.7902 1.68286 13.3028 1.80062 13.8H4.6C5.0232 13.8 5.36691 14.1437 5.36691 14.5669C5.36691 14.9897 5.0232 15.3335 4.6 15.3335H2.29853C2.52264 15.87 2.79202 16.3826 3.10224 16.8669H11.5C11.9232 16.8669 12.2669 17.2103 12.2669 17.6335C12.2669 18.0567 11.9232 18.4 11.5 18.4H4.31075C6.12462 20.2897 8.67597 21.4669 11.5 21.4669C14.324 21.4669 16.8754 20.2897 18.6892 18.4H16.8669C16.4437 18.4 16.1 18.0567 16.1 17.6335C16.1 17.2103 16.4437 16.8669 16.8669 16.8669H19.8981C20.2084 16.3826 20.4777 15.8696 20.7018 15.3335H11.5C11.0772 15.3335 10.7335 14.9897 10.7335 14.5669C10.7335 14.1437 11.0772 13.8 11.5 13.8H21.1997C21.3175 13.3025 21.3977 12.7902 21.4378 12.2669H19.1669C18.7437 12.2669 18.4 11.9232 18.4 11.5C18.4 11.0772 18.7437 10.7335 19.1669 10.7335H21.4378C21.3977 10.2098 21.3175 9.69754 21.1997 9.2H11.5C11.0772 9.2 10.7335 8.85666 10.7335 8.43346C10.7335 8.01026 11.0772 7.66691 11.5 7.66691H20.7018C20.4777 7.13037 20.2084 6.61738 19.8981 6.13346H16.8669C16.4437 6.13346 16.1 5.78974 16.1 5.36691C16.1 4.94371 16.4437 4.6 16.8669 4.6H18.6892Z" fill="black"/>
</svg>
