<svg width="79" height="71" viewBox="0 0 79 71" fill="none" xmlns="http://www.w3.org/2000/svg">
<path d="M13.4095 68.5517C15.2117 70.1262 17.5312 70.9966 19.9342 71H59.0827C61.4858 70.9966 63.8052 70.1262 65.6075 68.5517C71.4619 63.4387 75.658 56.7238 77.6672 49.2529C79.6764 41.782 79.409 33.8891 76.8985 26.5685C74.388 19.2479 69.7468 12.8269 63.5594 8.11424C57.3721 3.40162 49.9153 0.608156 42.1283 0.0856893H41.98C41.1644 0.0856893 40.3488 0 39.5085 0C38.6805 0 37.8526 -3.73942e-07 37.037 0.0856893H36.9134C36.2956 0.0856893 35.6777 0.17138 35.0722 0.232587C27.4683 1.08988 20.279 4.11444 14.3761 8.93941C8.47328 13.7644 4.11061 20.1824 1.81728 27.4151C-0.476049 34.6477 -0.601495 42.3842 1.45616 49.686C3.51381 56.9879 7.66614 63.5414 13.4095 68.5517ZM54.3375 17.1379C54.3375 20.6022 47.9981 24.4828 39.5085 24.4828C31.0189 24.4828 24.6795 20.6022 24.6795 17.1379C24.6795 13.6736 30.8583 9.86655 39.2861 9.7931H39.595C40.287 9.7931 40.9667 9.7931 41.6587 9.87879C49.0361 10.4664 54.3375 13.9674 54.3375 17.1379ZM10.1842 34.7288C10.898 30.01 12.788 25.5418 15.6833 21.7284C18.5008 29.0366 27.9542 34.2759 39.5085 34.2759C51.0627 34.2759 60.5162 29.0243 63.3461 21.704C67.7706 27.6166 69.7883 34.9615 68.9985 42.2798C68.2087 49.5981 64.6691 56.3544 59.0827 61.2069H19.9342C16.1889 57.9645 13.3313 53.8371 11.6268 49.2081C9.92222 44.5791 9.42601 39.5986 10.1842 34.7288Z" fill="black"/>
</svg>
