<svg width="14" height="14" viewBox="0 0 14 14" xmlns="http://www.w3.org/2000/svg" aria-hidden="true">
  <g clip-path="url(#clip0)">
    <path
      d="M0.494141 7.00977C0.494141 5.99414 0.644531 5.07031 0.945312 4.23828C1.25 3.40625 1.68359 2.69141 2.24609 2.09375C2.80859 1.49609 3.48047 1.03711 4.26172 0.716797C5.04688 0.392578 5.91797 0.230469 6.875 0.230469C7.83203 0.230469 8.70117 0.392578 9.48242 0.716797C10.2676 1.03711 10.9414 1.49609 11.5039 2.09375C12.0703 2.69141 12.5039 3.40625 12.8047 4.23828C13.1094 5.07031 13.2617 5.99414 13.2617 7.00977C13.2617 7.61914 13.2031 8.24023 13.0859 8.87305C12.9727 9.50586 12.8105 10.125 12.5996 10.7305C12.3887 11.3359 12.1348 11.8984 11.8379 12.418C11.7129 12.6289 11.5391 12.7637 11.3164 12.8223C11.0977 12.8848 10.8789 12.8535 10.6602 12.7285C10.4453 12.6113 10.3086 12.4395 10.25 12.2129C10.1914 11.9902 10.2246 11.7676 10.3496 11.5449C10.7285 10.8535 11.0195 10.1172 11.2227 9.33594C11.4297 8.55078 11.5332 7.77539 11.5332 7.00977C11.5332 6.25195 11.4219 5.56445 11.1992 4.94727C10.9766 4.32617 10.6602 3.79297 10.25 3.34766C9.84375 2.90234 9.35352 2.56055 8.7793 2.32227C8.20898 2.08008 7.57422 1.95898 6.875 1.95898C6.17969 1.95898 5.54492 2.08008 4.9707 2.32227C4.40039 2.56055 3.91016 2.90234 3.5 3.34766C3.08984 3.79297 2.77344 4.32617 2.55078 4.94727C2.33203 5.56445 2.22266 6.25195 2.22266 7.00977C2.22266 7.77539 2.32422 8.55078 2.52734 9.33594C2.73047 10.1172 3.02148 10.8535 3.40039 11.5449C3.52539 11.7676 3.55859 11.9902 3.5 12.2129C3.44531 12.4395 3.31055 12.6113 3.0957 12.7285C2.87695 12.8535 2.65625 12.8848 2.43359 12.8223C2.21094 12.7637 2.03711 12.6289 1.91211 12.418C1.61914 11.8984 1.36523 11.3359 1.15039 10.7305C0.939453 10.125 0.777344 9.50586 0.664062 8.87305C0.550781 8.24023 0.494141 7.61914 0.494141 7.00977ZM2.92578 12.2305L2.07617 9.69922C1.93945 9.3125 1.94922 8.95898 2.10547 8.63867C2.26172 8.31836 2.5332 8.0918 2.91992 7.95898C3.30664 7.83008 3.6582 7.84375 3.97461 8C4.29492 8.15234 4.51953 8.42188 4.64844 8.80859L5.50391 11.3398C5.63672 11.7227 5.625 12.0742 5.46875 12.3945C5.31641 12.7148 5.04688 12.9414 4.66016 13.0742C4.27344 13.2031 3.91992 13.1895 3.59961 13.0332C3.2793 12.8809 3.05469 12.6133 2.92578 12.2305ZM10.8242 12.2305C10.6953 12.6133 10.4707 12.8809 10.1504 13.0332C9.83398 13.1895 9.48047 13.2031 9.08984 13.0742C8.70312 12.9414 8.43164 12.7148 8.27539 12.3945C8.12305 12.0742 8.11328 11.7227 8.24609 11.3398L9.10156 8.80859C9.23438 8.42188 9.45898 8.15234 9.77539 8C10.0918 7.84375 10.4434 7.83008 10.8301 7.95898C11.2207 8.0918 11.4922 8.31836 11.6445 8.63867C11.8008 8.95508 11.8125 9.30859 11.6797 9.69922L10.8242 12.2305Z"
      fill="#ffffff"
      fill-opacity="0.45"
    />
  </g>
  <defs>
    <clipPath id="clip0">
      <rect width="14" height="14" fill="#ffffff" />
    </clipPath>
  </defs>
</svg>



