<svg width="18" height="19" viewBox="0 0 18 19" fill="none" xmlns="http://www.w3.org/2000/svg">
<path d="M2.67578 18.5059C0.891927 18.5059 0 17.8809 0 16.6309C0 15.9147 0.208333 15.1888 0.625 14.4531C1.04818 13.7174 1.64388 13.0436 2.41211 12.4316C3.18685 11.8132 4.10482 11.3151 5.16602 10.9375C6.22721 10.5599 7.39909 10.3711 8.68164 10.3711C9.9707 10.3711 11.1458 10.5599 12.207 10.9375C13.2682 11.3151 14.1829 11.8132 14.9512 12.4316C15.7194 13.0436 16.3118 13.7174 16.7285 14.4531C17.1517 15.1888 17.3633 15.9147 17.3633 16.6309C17.3633 17.8809 16.4746 18.5059 14.6973 18.5059H2.67578ZM2.60742 16.4453H14.7656C14.8568 16.4453 14.9219 16.4258 14.9609 16.3867C15 16.3542 15.0195 16.3021 15.0195 16.2305C15.0195 15.8984 14.8763 15.5208 14.5898 15.0977C14.3099 14.668 13.8997 14.2513 13.3594 13.8477C12.819 13.4375 12.1549 13.1022 11.3672 12.8418C10.5859 12.5749 9.69076 12.4414 8.68164 12.4414C7.67904 12.4414 6.78385 12.5749 5.99609 12.8418C5.21484 13.1022 4.55078 13.4375 4.00391 13.8477C3.46354 14.2513 3.05339 14.668 2.77344 15.0977C2.49349 15.5208 2.35352 15.8984 2.35352 16.2305C2.35352 16.3021 2.36979 16.3542 2.40234 16.3867C2.44141 16.4258 2.50977 16.4453 2.60742 16.4453ZM8.68164 9.35547C7.87435 9.35547 7.13867 9.14388 6.47461 8.7207C5.81706 8.29753 5.29297 7.73112 4.90234 7.02148C4.51172 6.30534 4.31641 5.51107 4.31641 4.63867C4.31641 3.79232 4.51172 3.01758 4.90234 2.31445C5.29948 1.61133 5.82682 1.05143 6.48438 0.634766C7.14844 0.211589 7.88086 0 8.68164 0C9.48893 0 10.2214 0.208333 10.8789 0.625C11.543 1.04167 12.0703 1.60156 12.4609 2.30469C12.8581 3.0013 13.0566 3.77604 13.0566 4.62891C13.0566 5.5013 12.8581 6.29557 12.4609 7.01172C12.0703 7.72786 11.5462 8.29753 10.8887 8.7207C10.2311 9.14388 9.49544 9.35547 8.68164 9.35547ZM8.68164 7.28516C9.09831 7.28516 9.47591 7.17122 9.81445 6.94336C10.153 6.71549 10.4232 6.40299 10.625 6.00586C10.8333 5.60221 10.9375 5.14323 10.9375 4.62891C10.9375 4.13411 10.8333 3.69466 10.625 3.31055C10.4232 2.91992 10.1497 2.61393 9.80469 2.39258C9.46615 2.17122 9.0918 2.06055 8.68164 2.06055C8.27799 2.06055 7.9069 2.17448 7.56836 2.40234C7.22982 2.6237 6.95638 2.92969 6.74805 3.32031C6.53971 3.70443 6.43555 4.14388 6.43555 4.63867C6.43555 5.15299 6.53646 5.61198 6.73828 6.01562C6.94661 6.41276 7.22005 6.72526 7.55859 6.95312C7.90365 7.17448 8.27799 7.28516 8.68164 7.28516Z" fill="#A44A2D"/>
</svg>
