<svg width="23" height="22" viewBox="0 0 23 22" fill="none" xmlns="http://www.w3.org/2000/svg">
<path d="M4.31362 21.2695C4.04018 21.0612 3.87416 20.7878 3.81557 20.4492C3.75698 20.1107 3.80255 19.7233 3.95229 19.2871L5.89565 13.5059L0.93471 9.94141C0.557106 9.67448 0.290179 9.38802 0.133929 9.08203C-0.0223214 8.76953 -0.0418527 8.44727 0.0753348 8.11523C0.186012 7.78971 0.39109 7.54883 0.690569 7.39258C0.996559 7.22982 1.37742 7.15169 1.83315 7.1582L7.9269 7.20703L9.78237 1.38672C9.92559 0.9375 10.1177 0.595703 10.3585 0.361328C10.6059 0.120443 10.9022 0 11.2472 0C11.5923 0 11.8852 0.120443 12.1261 0.361328C12.3735 0.595703 12.5688 0.9375 12.7121 1.38672L14.5578 7.20703L20.6515 7.1582C21.1137 7.15169 21.4946 7.22982 21.7941 7.39258C22.1001 7.54883 22.3084 7.79297 22.4191 8.125C22.5298 8.45703 22.507 8.77604 22.3507 9.08203C22.201 9.38802 21.9373 9.67448 21.5597 9.94141L16.589 13.5059L18.5421 19.2871C18.6919 19.7233 18.7374 20.1107 18.6789 20.4492C18.6203 20.7878 18.451 21.0612 18.171 21.2695C17.8911 21.4844 17.5818 21.5625 17.2433 21.5039C16.9048 21.4518 16.5467 21.2891 16.1691 21.0156L11.2472 17.3926L6.31557 21.0156C5.94448 21.2891 5.5864 21.4518 5.24135 21.5039C4.90281 21.5625 4.59356 21.4844 4.31362 21.2695ZM6.57924 18.1641C6.58575 18.1771 6.60854 18.1706 6.6476 18.1445L10.5343 15.0879C10.8078 14.8796 11.0454 14.7754 11.2472 14.7754C11.449 14.7754 11.6867 14.8796 11.9601 15.0879L15.8468 18.1445C15.8794 18.1706 15.9022 18.1771 15.9152 18.1641C15.9282 18.151 15.9282 18.125 15.9152 18.0859L14.216 13.4473C14.1378 13.2389 14.0955 13.0599 14.089 12.9102C14.0825 12.7604 14.1216 12.627 14.2062 12.5098C14.2908 12.3861 14.4341 12.2559 14.6359 12.1191L18.7374 9.35547C18.7765 9.33594 18.7928 9.31641 18.7863 9.29688C18.7798 9.27734 18.7537 9.26758 18.7081 9.26758L13.7765 9.44336C13.4315 9.44987 13.1775 9.40104 13.0148 9.29688C12.852 9.1862 12.7251 8.96484 12.6339 8.63281L11.2863 3.88672C11.2798 3.84766 11.2667 3.82812 11.2472 3.82812C11.2277 3.82812 11.2114 3.84766 11.1984 3.88672L9.85073 8.63281C9.76609 8.96484 9.64239 9.1862 9.47963 9.29688C9.31687 9.40104 9.06296 9.44987 8.71791 9.44336L3.78627 9.26758C3.7407 9.26758 3.71466 9.27734 3.70815 9.29688C3.70164 9.31641 3.71791 9.33594 3.75698 9.35547L7.85854 12.1191C8.06036 12.2493 8.20359 12.3763 8.28823 12.5C8.37286 12.6237 8.40867 12.7604 8.39565 12.9102C8.38914 13.0599 8.34682 13.2389 8.26869 13.4473L6.56948 18.0859C6.56297 18.125 6.56622 18.151 6.57924 18.1641Z" fill="#A44A2D"/>
</svg>
