<svg width="19" height="22" viewBox="0 0 19 22" fill="none" xmlns="http://www.w3.org/2000/svg">
<path d="M4.375 21.5527C2.97526 21.5527 1.89453 21.1719 1.13281 20.4102C0.377604 19.6549 0 18.5775 0 17.1777V9.63867C0 8.23242 0.377604 7.15169 1.13281 6.39648C1.89453 5.64128 2.97526 5.26367 4.375 5.26367H6.12305V7.7832H4.51172C3.8737 7.7832 3.38216 7.95898 3.03711 8.31055C2.69206 8.6556 2.51953 9.14388 2.51953 9.77539V17.041C2.51953 17.6725 2.69206 18.1608 3.03711 18.5059C3.38216 18.8574 3.8737 19.0332 4.51172 19.0332H13.7012C14.3392 19.0332 14.8307 18.8574 15.1758 18.5059C15.5208 18.1608 15.6934 17.6725 15.6934 17.041V9.77539C15.6934 9.14388 15.5208 8.6556 15.1758 8.31055C14.8307 7.95898 14.3392 7.7832 13.7012 7.7832H12.0898V5.26367H13.8379C15.2376 5.26367 16.3151 5.64128 17.0703 6.39648C17.832 7.15169 18.2129 8.23242 18.2129 9.63867V17.1777C18.2129 18.5775 17.832 19.6549 17.0703 20.4102C16.3151 21.1719 15.2376 21.5527 13.8379 21.5527H4.375ZM9.11133 0C9.42383 0 9.6875 0.110677 9.90234 0.332031C10.1237 0.553385 10.2344 0.813802 10.2344 1.11328V10.6836L10.0098 13.7988C9.98372 14.0397 9.88607 14.248 9.7168 14.4238C9.55404 14.5996 9.35221 14.6875 9.11133 14.6875C8.86393 14.6875 8.6556 14.5996 8.48633 14.4238C8.32357 14.248 8.23242 14.0397 8.21289 13.7988L7.97852 10.6836V1.11328C7.97852 0.813802 8.08594 0.553385 8.30078 0.332031C8.52214 0.110677 8.79232 0 9.11133 0ZM5.68359 9.82422C5.97656 9.82422 6.22396 9.93164 6.42578 10.1465L7.61719 11.416L9.11133 13.5352L10.5957 11.416L11.7871 10.1465C11.9824 9.93164 12.2298 9.82422 12.5293 9.82422C12.7832 9.82422 13.0078 9.91211 13.2031 10.0879C13.4049 10.2637 13.5059 10.4883 13.5059 10.7617C13.5059 11.0221 13.4049 11.2533 13.2031 11.4551L10 14.5312C9.85026 14.6745 9.70052 14.7754 9.55078 14.834C9.40755 14.8926 9.26107 14.9219 9.11133 14.9219C8.95508 14.9219 8.80208 14.8926 8.65234 14.834C8.50911 14.7754 8.36263 14.6745 8.21289 14.5312L5.00977 11.4551C4.80794 11.2533 4.70703 11.0221 4.70703 10.7617C4.70703 10.4883 4.80469 10.2637 5 10.0879C5.20182 9.91211 5.42969 9.82422 5.68359 9.82422Z" fill="#A44A2D"/>
</svg>
