<svg width="34" height="25" viewBox="0 0 34 25" fill="none" xmlns="http://www.w3.org/2000/svg">
<path fill-rule="evenodd" clip-rule="evenodd" d="M22.5229 17.1903C24.1166 16.866 26.6556 16.089 28.7982 15.086C29.8714 14.5836 30.8063 14.0424 31.468 13.4979C32.1627 12.9263 32.3962 12.4835 32.4107 12.2024C32.4239 11.9493 32.2465 11.5124 31.5748 10.9221C30.9374 10.362 30.0036 9.79759 28.9033 9.28476C26.6992 8.25729 24.0107 7.51964 22.1433 7.4029C20.7321 7.3146 17.7762 7.56305 14.5302 7.95227C11.3114 8.33817 7.89213 8.85154 5.60217 9.26689C5.41796 9.30029 5.29631 9.43377 5.26991 9.5841C5.14951 10.2697 5.04455 11.1023 4.999 11.973L9.74449 11.9564C10.1831 11.9549 10.5375 12.3125 10.536 12.7551C10.5345 13.1977 10.1776 13.5578 9.739 13.5593L4.99148 13.5759C5.02963 14.3576 5.13625 15.117 5.34252 15.7766C5.36579 15.8511 5.44947 15.9488 5.62512 15.972C5.70938 15.9831 5.79498 15.9943 5.88171 16.0056C6.00216 15.9931 6.12516 16.0083 6.24064 16.052C8.72537 16.3717 12.0617 16.7564 15.1247 17.0159C16.7871 17.1567 18.3607 17.2599 19.6702 17.2964C21.004 17.3336 21.9912 17.2984 22.5229 17.1903ZM6.27316 17.6734C8.47408 17.954 11.2861 18.2789 13.988 18.5257L11.2368 21.302C10.2623 22.2853 8.82024 22.8696 7.19025 23.1623C5.57026 23.4532 3.84696 23.441 2.40671 23.3022C2.25317 23.2874 2.16613 23.2045 2.1254 23.0938C2.08173 22.9751 2.09207 22.8159 2.21003 22.6709L6.27316 17.6734ZM16.0542 18.6997C17.3389 18.7977 18.5557 18.8692 19.6154 18.8988C20.9423 18.9357 22.0963 18.91 22.8265 18.7615C24.5358 18.4138 27.1953 17.5987 29.4584 16.5392C30.5881 16.0104 31.6578 15.403 32.4667 14.7374C33.2426 14.099 33.9454 13.2703 33.997 12.2751C34.0501 11.2518 33.3815 10.377 32.6228 9.71022C31.8297 9.01317 30.7487 8.37463 29.5776 7.82878C27.239 6.73859 24.3582 5.93474 22.2525 5.80296C20.9746 5.7231 18.7003 5.88484 16.1743 6.15396C16.1664 6.14577 16.1582 6.13769 16.15 6.12973L12.1353 2.29564C10.8087 1.02873 8.98669 0.417544 7.18477 0.160256C5.37269 -0.0984122 3.49512 -0.0116655 1.96152 0.192436C0.314713 0.411498 -0.210169 2.32911 0.770063 3.47306L4.61878 7.96472C4.17444 8.24198 3.84032 8.68904 3.72164 9.23452L2.00184 9.30133C0.887805 9.34455 0.00268144 10.2718 0.00191344 11.3966L5.19345e-07 14.2475C-0.00081296 15.4183 0.954132 16.3533 2.11408 16.3174L3.82603 16.2644L3.82736 16.2686C3.96196 16.6992 4.23433 17.0291 4.56964 17.2501L0.984776 21.6594C0.026869 22.8375 0.59181 24.7385 2.24483 24.8979C3.7799 25.0459 5.65506 25.0642 7.45806 24.7404C9.25113 24.4184 11.0568 23.7427 12.3561 22.4315L16.0542 18.6997ZM6.3385 7.5126C8.52475 7.14045 11.3749 6.7223 14.1043 6.39059L11.0393 3.46344C10.0453 2.51421 8.59006 1.98131 6.9516 1.74748C5.3233 1.51503 3.59751 1.59014 2.15842 1.78155C2.00548 1.80192 1.92005 1.88791 1.88164 2.00008C1.84046 2.12037 1.85412 2.27906 1.97472 2.41986L6.3385 7.5126ZM2.07633 14.7152L3.49172 14.6714C3.32956 13.3853 3.37423 12.0198 3.49428 10.8471L2.05194 10.903C1.79486 10.9131 1.59055 11.127 1.59044 11.3866L1.58847 14.2376C1.58828 14.5077 1.80864 14.7235 2.07633 14.7152ZM22.6846 13.3644C22.0466 14.0082 21.0157 14.0118 20.382 13.3724C19.7484 12.733 19.7519 11.6927 20.39 11.0489C21.028 10.405 22.0589 10.4014 22.6926 11.0408C23.3263 11.6802 23.3227 12.7205 22.6846 13.3644ZM19.2549 14.5098C20.5068 15.773 22.5434 15.7659 23.804 14.4939C25.0645 13.2219 25.0716 11.1667 23.8197 9.90345C22.5678 8.6402 20.5312 8.64731 19.2707 9.91934C18.0101 11.1914 18.0031 13.2465 19.2549 14.5098Z" fill="black"/>
</svg>
